<?xml version="1.0" standalone="no"?>
<!DOCTYPE svg PUBLIC "-//W3C//DTD SVG 20010904//EN"
 "http://www.w3.org/TR/2001/REC-SVG-20010904/DTD/svg10.dtd">
<svg version="1.0" xmlns="http://www.w3.org/2000/svg"
 width="886.000000pt" height="886.000000pt" viewBox="0 0 886.000000 886.000000"
 preserveAspectRatio="xMidYMid meet">
<metadata>
Created by potrace 1.11, written by Peter Selinger 2001-2013
</metadata>
<g transform="translate(0.000000,886.000000) scale(0.100000,-0.100000)"
fill="#000000" stroke="none">
<path d="M3478 5666 c-10 -7 -18 -16 -18 -20 0 -10 40 -7 62 5 17 9 18 13 7
20 -19 12 -31 11 -51 -5z"/>
<path d="M3678 5618 c-5 -15 18 -41 33 -36 6 2 2 13 -9 26 -14 16 -21 19 -24
10z"/>
<path d="M3535 5510 c3 -5 8 -10 11 -10 2 0 4 5 4 10 0 6 -5 10 -11 10 -5 0
-7 -4 -4 -10z"/>
<path d="M3428 5503 c7 -3 16 -2 19 1 4 3 -2 6 -13 5 -11 0 -14 -3 -6 -6z"/>
<path d="M3488 5478 c7 -7 12 -21 13 -32 0 -21 0 -21 8 -1 9 21 -3 45 -22 45
-7 0 -7 -4 1 -12z"/>
<path d="M3540 5475 c-7 -8 -9 -15 -6 -15 4 0 14 7 22 15 9 8 11 15 6 15 -5 0
-15 -7 -22 -15z"/>
<path d="M3455 5460 c11 -5 16 -9 11 -9 -5 -1 -3 -7 3 -14 6 -8 8 -17 4 -20
-3 -4 16 -8 43 -9 l49 -1 -43 -6 c-42 -6 -43 -6 -22 -23 11 -10 20 -25 20 -34
0 -15 -2 -15 -20 1 -11 10 -20 13 -20 7 0 -7 5 -12 10 -12 6 0 10 -9 10 -21 0
-15 5 -19 15 -15 9 3 15 0 15 -9 0 -7 7 -21 16 -30 9 -9 13 -19 10 -23 -4 -3
-11 0 -16 8 -11 18 -22 8 -25 -23 -2 -20 1 -24 16 -20 23 6 25 -12 3 -21 -9
-4 -14 -10 -10 -13 11 -11 86 -11 86 -1 0 5 7 16 15 24 8 9 15 11 15 5 0 -6 7
-11 16 -11 10 0 14 5 10 16 -4 10 -2 13 6 8 7 -5 9 0 6 14 -4 12 -2 22 3 22 5
0 9 5 9 10 0 6 -11 10 -25 10 -16 0 -25 6 -25 15 0 8 4 15 9 15 5 0 7 10 3 22
-3 14 -1 19 6 14 8 -5 10 -2 6 8 -3 9 -14 16 -23 16 -13 0 -13 -2 -2 -9 9 -6
10 -11 2 -15 -23 -14 -25 27 -2 45 12 10 17 20 12 23 -5 4 -12 0 -14 -6 -3 -7
-6 -3 -6 10 -1 15 -7 22 -20 22 -11 0 -23 5 -26 10 -3 6 -14 10 -23 10 -12 0
-8 -7 13 -21 28 -19 28 -20 5 -13 -14 4 -38 7 -53 7 -19 1 -34 9 -44 24 -8 13
-23 23 -32 22 -12 0 -11 -2 4 -9z m150 -70 c19 -8 19 -9 -2 -9 -12 -1 -25 4
-28 9 -7 12 2 12 30 0z m35 -74 c0 -3 -4 -8 -10 -11 -5 -3 -10 -1 -10 4 0 6 5
11 10 11 6 0 10 -2 10 -4z m-75 -27 c11 -16 1 -19 -13 -3 -7 8 -8 14 -3 14 5
0 13 -5 16 -11z m41 -74 c-3 -22 -8 -22 -36 -1 l-25 18 28 -6 c21 -5 27 -4 21
5 -4 7 -3 9 4 6 5 -4 9 -14 8 -22z"/>
<path d="M3578 5463 c7 -3 16 -2 19 1 4 3 -2 6 -13 5 -11 0 -14 -3 -6 -6z"/>
<path d="M3429 5389 c-12 -7 -11 -9 3 -9 9 0 18 -6 21 -12 2 -7 7 -11 10 -8 3
3 0 13 -7 22 -8 11 -17 14 -27 7z"/>
<path d="M2557 5366 c-7 -18 3 -56 15 -56 5 0 6 -5 3 -10 -5 -8 -12 -7 -23 2
-13 11 -14 11 -4 -8 8 -15 8 -24 0 -32 -8 -8 -6 -16 7 -28 14 -15 18 -15 26
-3 5 9 9 10 9 2 0 -6 -9 -18 -20 -26 -19 -13 -19 -16 -6 -29 11 -12 12 -18 3
-27 -8 -8 -5 -11 14 -11 14 0 19 -3 12 -8 -16 -10 -4 -65 13 -58 8 3 14 1 14
-4 0 -6 -5 -10 -11 -10 -6 0 -8 -9 -4 -21 5 -15 4 -19 -4 -15 -6 4 -11 0 -11
-8 0 -9 6 -16 14 -16 9 0 13 -7 11 -18 -2 -11 3 -19 11 -19 8 0 14 6 14 12 0
8 19 9 73 2 110 -13 232 -6 254 16 16 16 16 17 0 17 -9 0 -25 4 -35 9 -9 6
-39 18 -67 28 -76 26 -190 146 -241 251 -38 79 -56 97 -67 68z m23 -106 c0 -5
-5 -10 -11 -10 -5 0 -7 5 -4 10 3 6 8 10 11 10 2 0 4 -4 4 -10z"/>
<path d="M3412 5310 c7 -11 17 -20 22 -20 5 0 1 9 -9 20 -10 11 -20 20 -22 20
-2 0 2 -9 9 -20z"/>
<path d="M3388 5293 c7 -3 16 -2 19 1 4 3 -2 6 -13 5 -11 0 -14 -3 -6 -6z"/>
<path d="M3486 5265 c4 -8 11 -15 16 -15 6 0 5 6 -2 15 -7 8 -14 15 -16 15 -2
0 -1 -7 2 -15z"/>
<path d="M3457 5259 c7 -7 15 -10 18 -7 3 3 -2 9 -12 12 -14 6 -15 5 -6 -5z"/>
<path d="M3688 5193 c7 -3 16 -2 19 1 4 3 -2 6 -13 5 -11 0 -14 -3 -6 -6z"/>
<path d="M3630 5179 c0 -9 14 -13 38 -10 6 1 12 -4 12 -11 0 -11 2 -11 8 0 5
7 23 14 40 15 17 1 28 5 24 9 -4 4 -21 4 -37 -1 -17 -4 -42 -4 -57 0 -16 4
-28 4 -28 -2z"/>
<path d="M3455 5160 c3 -5 11 -10 16 -10 6 0 7 5 4 10 -3 6 -11 10 -16 10 -6
0 -7 -4 -4 -10z"/>
<path d="M3700 5156 c0 -2 11 -6 25 -8 14 -3 25 -1 25 3 0 5 -11 9 -25 9 -14
0 -25 -2 -25 -4z"/>
<path d="M3530 5142 c0 -5 7 -15 15 -22 8 -7 15 -9 15 -6 0 4 -7 14 -15 22 -8
9 -15 11 -15 6z"/>
<path d="M3608 5143 c7 -3 16 -2 19 1 4 3 -2 6 -13 5 -11 0 -14 -3 -6 -6z"/>
<path d="M3662 5136 c7 -8 15 -12 17 -11 5 6 -10 25 -20 25 -5 0 -4 -6 3 -14z"/>
<path d="M3710 5130 c0 -5 5 -10 10 -10 6 0 10 5 10 10 0 6 -4 10 -10 10 -5 0
-10 -4 -10 -10z"/>
<path d="M3574 5118 c-5 -8 -2 -9 9 -5 9 3 16 3 15 -1 -4 -19 16 -42 36 -41
11 0 15 3 9 6 -18 7 -16 21 5 26 12 3 11 5 -6 6 -13 0 -20 6 -17 11 3 6 -5 10
-19 10 -14 0 -28 -5 -32 -12z"/>
<path d="M3458 5087 c14 -15 31 -26 36 -24 6 2 17 -2 24 -10 8 -7 19 -10 25
-6 8 5 7 8 -2 11 -16 5 -57 45 -54 52 1 3 -12 5 -27 5 l-29 0 27 -28z"/>
<path d="M3716 5078 c4 -7 14 -21 22 -31 8 -9 12 -20 7 -25 -4 -4 -10 -1 -12
6 -3 6 -12 12 -20 12 -12 0 -13 -3 -4 -14 7 -8 26 -14 42 -14 20 1 26 4 17 9
-7 5 -9 9 -4 9 5 0 0 10 -12 23 -12 13 -19 27 -15 30 3 4 -1 7 -11 7 -11 0
-15 -5 -10 -12z"/>
<path d="M3750 5075 c0 -8 7 -15 15 -15 9 0 12 6 9 15 -4 8 -10 15 -15 15 -5
0 -9 -7 -9 -15z"/>
<path d="M3598 5053 c7 -3 16 -2 19 1 4 3 -2 6 -13 5 -11 0 -14 -3 -6 -6z"/>
<path d="M3663 5053 c9 -2 23 -2 30 0 6 3 -1 5 -18 5 -16 0 -22 -2 -12 -5z"/>
<path d="M3618 5033 c17 -7 15 -21 -5 -25 -14 -3 -14 -5 3 -18 10 -8 16 -10
12 -6 -4 5 -3 15 3 22 12 15 4 34 -14 33 -9 0 -9 -2 1 -6z"/>
<path d="M3850 5011 c0 -6 4 -13 10 -16 6 -3 7 1 4 9 -7 18 -14 21 -14 7z"/>
<path d="M3691 4997 c2 -1 12 -9 22 -16 15 -12 17 -12 11 3 -3 9 -13 16 -22
16 -8 0 -13 -1 -11 -3z"/>
<path d="M3743 4985 c0 -8 4 -12 9 -9 4 3 8 0 8 -7 0 -7 2 -10 5 -7 7 7 -5 38
-14 38 -4 0 -8 -7 -8 -15z"/>
<path d="M3785 4990 c3 -5 8 -10 11 -10 2 0 4 5 4 10 0 6 -5 10 -11 10 -5 0
-7 -4 -4 -10z"/>
<path d="M3728 4943 c6 -2 18 -2 25 0 6 3 1 5 -13 5 -14 0 -19 -2 -12 -5z"/>
<path d="M3730 4920 c0 -5 5 -10 11 -10 5 0 7 5 4 10 -3 6 -8 10 -11 10 -2 0
-4 -4 -4 -10z"/>
<path d="M3707 4899 c7 -7 15 -10 18 -7 3 3 -2 9 -12 12 -14 6 -15 5 -6 -5z"/>
<path d="M3810 4906 c0 -2 7 -7 16 -10 8 -3 12 -2 9 4 -6 10 -25 14 -25 6z"/>
<path d="M3683 4871 c6 -17 14 -28 19 -25 4 3 1 16 -8 30 -21 32 -25 30 -11
-5z"/>
<path d="M3770 4820 c0 -5 5 -10 11 -10 5 0 7 5 4 10 -3 6 -8 10 -11 10 -2 0
-4 -4 -4 -10z"/>
<path d="M3745 4800 c3 -5 8 -10 11 -10 2 0 4 5 4 10 0 6 -5 10 -11 10 -5 0
-7 -4 -4 -10z"/>
<path d="M5040 4281 c0 -14 5 -19 15 -14 17 6 15 25 -3 31 -7 2 -12 -5 -12
-17z"/>
<path d="M4387 4159 c7 -7 15 -10 18 -7 3 3 -2 9 -12 12 -14 6 -15 5 -6 -5z"/>
<path d="M2630 4140 c0 -5 7 -10 15 -10 8 0 15 5 15 10 0 6 -7 10 -15 10 -8 0
-15 -4 -15 -10z"/>
<path d="M5756 4115 c4 -8 13 -15 21 -15 13 0 13 3 3 15 -7 8 -16 15 -21 15
-5 0 -6 -7 -3 -15z"/>
<path d="M2653 4093 c1 -17 6 -29 11 -25 5 3 7 -2 3 -11 -7 -18 19 -77 35 -77
5 0 8 -7 4 -15 -3 -9 0 -15 9 -15 9 0 12 -6 9 -15 -4 -8 -1 -15 7 -15 7 0 10
-3 6 -6 -18 -19 107 -157 192 -211 143 -92 449 -179 558 -158 17 3 34 1 37 -4
12 -18 428 -5 500 16 15 4 18 1 13 -11 -4 -10 -3 -15 3 -11 6 3 13 -2 16 -12
3 -10 11 -28 17 -41 9 -18 8 -25 -3 -32 -13 -8 -12 -10 1 -10 9 0 20 -7 23
-16 5 -14 4 -15 -9 -4 -23 19 -18 4 6 -19 13 -11 19 -26 16 -35 -5 -13 17 -70
33 -86 17 -16 39 -60 30 -60 -6 0 -2 -10 10 -22 11 -12 26 -34 32 -50 7 -15
17 -28 21 -28 5 0 5 -4 2 -10 -3 -5 1 -10 11 -10 13 0 14 -3 5 -14 -7 -8 -8
-16 -4 -18 14 -6 44 -68 38 -78 -3 -6 1 -10 10 -10 9 0 13 -4 10 -10 -3 -5 -1
-10 5 -10 6 0 9 -4 5 -9 -3 -5 1 -15 8 -23 8 -7 12 -19 9 -26 -2 -6 3 -12 12
-12 10 0 13 -6 9 -17 -5 -12 -3 -14 7 -8 10 6 12 4 7 -8 -3 -10 -2 -17 3 -17
6 0 10 -6 10 -13 0 -7 9 -23 20 -35 11 -12 20 -26 20 -32 0 -5 5 -10 11 -10 6
0 8 -7 5 -16 -3 -8 -2 -12 3 -9 6 3 18 -8 27 -25 10 -16 22 -30 27 -30 5 0 7
-7 3 -15 -3 -8 -1 -15 4 -15 6 0 10 -8 10 -17 0 -13 3 -14 12 -5 17 17 31 15
24 -3 -7 -18 13 -55 30 -55 6 0 17 -11 24 -25 7 -14 20 -25 27 -25 8 0 11 -4
8 -10 -3 -5 -1 -10 4 -10 6 0 19 -8 29 -17 16 -15 106 -95 175 -155 11 -10 24
-18 29 -18 4 0 8 -6 8 -13 0 -8 18 -22 40 -32 22 -10 45 -24 51 -32 7 -8 21
-11 33 -8 17 5 18 4 6 -4 -8 -6 -13 -11 -10 -12 33 -6 102 -31 110 -40 3 -3
34 -14 70 -24 91 -25 261 -26 312 -1 21 10 35 22 32 27 -3 5 4 9 16 9 12 0 18
-4 15 -10 -3 -5 1 -10 9 -10 9 0 16 5 16 10 0 6 7 10 15 10 9 0 18 7 21 15 4
8 15 15 26 15 10 0 17 4 14 8 -3 5 13 9 35 10 53 2 71 14 39 24 -18 5 -13 6
16 3 40 -5 109 22 127 49 5 8 9 7 15 -2 13 -19 36 12 29 38 -5 21 4 25 56 21
42 -3 94 17 100 39 3 11 2 20 -2 20 -4 0 -15 6 -24 13 -15 10 -12 12 22 11 47
-2 85 21 78 47 -3 10 2 20 10 23 8 3 11 10 8 16 -3 5 1 10 10 10 9 0 14 4 11
9 -3 5 1 21 9 37 18 38 26 114 11 114 -6 0 -4 5 4 10 30 19 11 399 -25 491 -5
13 3 18 42 25 26 4 51 8 55 8 4 1 17 9 28 19 11 9 25 17 32 17 6 0 8 3 5 6 -3
4 5 15 18 26 14 11 23 24 20 29 -4 5 0 9 8 9 7 0 20 11 27 25 7 14 17 25 21
25 5 0 6 7 2 16 -3 9 0 20 8 26 11 7 11 11 2 15 -7 2 -13 9 -13 15 0 6 9 3 20
-7 20 -18 20 -17 21 11 2 46 -2 78 -12 96 -7 14 -6 16 6 12 20 -8 19 6 -1 21
-9 6 -16 23 -16 38 0 14 -3 26 -7 25 -19 -2 -24 4 -11 12 12 8 9 10 -13 10
-26 0 -27 -1 -13 -16 9 -8 13 -20 10 -26 -4 -7 -10 -5 -15 5 -5 9 -17 13 -28
10 -13 -3 -21 2 -26 16 -3 12 -11 21 -16 21 -5 0 -9 6 -9 14 0 8 -6 17 -12 20
-7 3 -3 3 10 0 31 -8 28 1 -18 46 -28 28 -45 37 -60 33 -12 -3 -19 -11 -16
-19 3 -8 0 -11 -10 -7 -7 3 -14 12 -14 20 0 11 -7 14 -25 11 -14 -3 -25 -2
-25 3 0 12 -89 3 -138 -14 -28 -10 -70 -41 -115 -84 -108 -102 -111 -107 -93
-142 16 -30 38 -302 30 -364 -2 -18 -7 -50 -10 -72 -5 -37 -69 -172 -88 -186
-5 -4 -5 -13 -1 -20 5 -8 5 -11 1 -7 -7 6 -32 -13 -80 -57 -30 -28 -133 -64
-258 -89 -10 -2 -50 5 -90 15 -40 11 -100 22 -133 25 -45 4 -88 19 -170 58
-60 29 -128 61 -150 71 -22 10 -76 46 -121 81 -117 91 -231 246 -294 398 -14
33 -44 96 -67 141 -47 92 -103 301 -124 458 -14 110 -1 100 -131 98 -51 0 -94
-7 -128 -21 -28 -11 -71 -20 -96 -20 -24 0 -55 -6 -67 -14 -12 -8 -58 -24
-101 -36 -43 -11 -86 -25 -95 -29 -65 -34 -154 -54 -265 -61 -67 -4 -131 -12
-143 -18 -12 -7 -60 -12 -106 -12 -75 0 -87 3 -113 25 -16 14 -53 30 -83 36
-31 6 -78 25 -106 41 -103 60 -158 97 -166 110 -5 8 -8 1 -6 -19z m171 -262
c-6 -6 -34 20 -34 32 0 6 8 2 19 -9 10 -10 17 -21 15 -23z m54 -51 c7 -11 9
-20 4 -20 -4 0 -13 9 -20 20 -7 11 -9 20 -4 20 4 0 13 -9 20 -20z m3387 -40
c3 -5 1 -10 -4 -10 -6 0 -11 5 -11 10 0 6 2 10 4 10 3 0 8 -4 11 -10z m-2405
-126 c0 -2 -7 -4 -15 -4 -8 0 -15 4 -15 10 0 5 7 7 15 4 8 -4 15 -8 15 -10z
m-110 -4 c0 -5 -5 -10 -11 -10 -5 0 -7 5 -4 10 3 6 8 10 11 10 2 0 4 -4 4 -10z
m2698 -12 c14 -18 -10 -39 -29 -27 -11 7 -12 9 0 9 7 0 11 6 7 15 -7 18 8 20
22 3z m22 -79 c0 -5 -5 -9 -11 -9 -5 0 -7 5 -4 10 3 6 1 10 -4 10 -6 0 -11 5
-11 11 0 8 5 8 15 -1 8 -7 15 -16 15 -21z m0 -49 c0 -5 -2 -10 -4 -10 -3 0 -8
5 -11 10 -3 6 -1 10 4 10 6 0 11 -4 11 -10z m-2320 -100 c0 -5 -2 -10 -4 -10
-3 0 -8 5 -11 10 -3 6 -1 10 4 10 6 0 11 -4 11 -10z m2110 -74 c0 -3 -4 -8
-10 -11 -5 -3 -10 -1 -10 4 0 6 5 11 10 11 6 0 10 -2 10 -4z m-63 -651 c0 -8
-4 -15 -9 -15 -4 0 -8 7 -8 15 0 8 4 15 8 15 5 0 9 -7 9 -15z m-1607 -25 c0
-5 -2 -10 -4 -10 -3 0 -8 5 -11 10 -3 6 -1 10 4 10 6 0 11 -4 11 -10z m1370
-220 c0 -5 -5 -10 -11 -10 -5 0 -7 5 -4 10 3 6 8 10 11 10 2 0 4 -4 4 -10z
m54 -15 c3 -8 2 -15 -3 -15 -5 0 -14 7 -21 15 -10 12 -10 15 3 15 8 0 17 -7
21 -15z m-34 -15 c0 -5 -4 -10 -10 -10 -5 0 -10 5 -10 10 0 6 5 10 10 10 6 0
10 -4 10 -10z m-1070 -70 c0 -5 -2 -10 -4 -10 -3 0 -8 5 -11 10 -3 6 -1 10 4
10 6 0 11 -4 11 -10z m57 -16 c-3 -3 -12 -4 -19 -1 -8 3 -5 6 6 6 11 1 17 -2
13 -5z m136 -68 c4 -10 1 -13 -8 -9 -8 3 -12 9 -9 14 7 12 11 11 17 -5z m522
4 c3 -5 1 -10 -4 -10 -6 0 -11 5 -11 10 0 6 2 10 4 10 3 0 8 -4 11 -10z m-15
-24 c0 -2 -7 -6 -15 -10 -8 -3 -15 -1 -15 4 0 6 7 10 15 10 8 0 15 -2 15 -4z
m-100 -35 c0 -5 -7 -11 -14 -14 -10 -4 -13 -1 -9 9 6 15 23 19 23 5z m-100
-17 c0 -8 -4 -12 -10 -9 -5 3 -10 10 -10 16 0 5 5 9 10 9 6 0 10 -7 10 -16z
m-40 -4 c0 -5 -4 -10 -10 -10 -5 0 -10 5 -10 10 0 6 5 10 10 10 6 0 10 -4 10
-10z"/>
<path d="M3818 4093 c7 -3 16 -2 19 1 4 3 -2 6 -13 5 -11 0 -14 -3 -6 -6z"/>
<path d="M6310 3780 c6 -11 14 -20 18 -20 4 0 13 -9 20 -21 11 -17 11 -23 0
-37 -11 -14 -10 -15 5 -9 10 4 27 2 38 -3 28 -16 24 -8 -26 46 -25 27 -45 52
-45 57 0 4 -5 7 -10 7 -7 0 -7 -6 0 -20z"/>
<path d="M6370 3665 c7 -9 15 -13 17 -11 7 7 -7 26 -19 26 -6 0 -6 -6 2 -15z"/>
<path d="M5937 2329 c8 -8 16 -8 30 0 16 9 14 10 -11 11 -22 0 -27 -3 -19 -11z"/>
<path d="M5660 2190 c-34 -17 -34 -17 -7 -17 15 0 27 3 27 7 0 5 17 12 38 18
35 9 35 10 7 10 -16 0 -46 -8 -65 -18z"/>
<path d="M5785 2180 c3 -5 8 -10 11 -10 2 0 4 5 4 10 0 6 -5 10 -11 10 -5 0
-7 -4 -4 -10z"/>
<path d="M5720 2161 c7 -14 6 -21 -3 -24 -7 -2 -8 -8 -3 -13 5 -5 11 -4 13 4
3 6 9 9 15 6 5 -4 5 4 -2 16 -11 20 -10 22 4 17 9 -4 16 -2 16 3 0 6 -11 10
-25 10 -22 0 -24 -3 -15 -19z"/>
<path d="M5528 2133 c7 -3 16 -2 19 1 4 3 -2 6 -13 5 -11 0 -14 -3 -6 -6z"/>
<path d="M5670 2130 c0 -5 5 -10 10 -10 6 0 10 5 10 10 0 6 -4 10 -10 10 -5 0
-10 -4 -10 -10z"/>
</g>
</svg>
